<?xml version="1.0" standalone="no"?>
<!DOCTYPE svg PUBLIC "-//W3C//DTD SVG 20010904//EN"
 "http://www.w3.org/TR/2001/REC-SVG-20010904/DTD/svg10.dtd">
<svg version="1.0" xmlns="http://www.w3.org/2000/svg"
 width="240.000000pt" height="240.000000pt" viewBox="0 0 240.000000 240.000000"
 preserveAspectRatio="xMidYMid meet">
<metadata>
Created by potrace 1.14, written by Peter Selinger 2001-2017
</metadata>
<g transform="translate(0.000000,240.000000) scale(0.100000,-0.100000)"
fill="#000000" stroke="none">
<path d="M640 2323 c-43 -18 -68 -40 -86 -75 -12 -24 -12 -33 -1 -61 21 -49
56 -67 127 -67 44 0 62 -4 66 -15 5 -13 1 -65 -26 -340 -16 -159 -13 -153 -69
-147 -43 4 -50 1 -77 -27 -37 -40 -52 -82 -53 -153 -2 -98 38 -143 113 -131
l37 6 -6 -64 c-34 -370 -47 -463 -68 -479 -14 -11 -21 -37 -29 -99 -10 -84
-10 -84 -75 -160 -115 -135 -165 -224 -247 -444 -25 -65 -25 -67 -6 -67 11 0
20 7 20 15 0 12 58 156 111 271 19 43 111 169 176 242 l38 44 130 -65 c130
-65 213 -95 315 -117 88 -19 83 -12 101 -171 10 -79 20 -161 24 -182 l8 -37
334 0 334 0 24 28 c30 34 30 42 1 122 -47 131 -91 210 -116 210 -5 0 -35 -17
-67 -38 -32 -21 -92 -56 -133 -78 -68 -36 -75 -43 -78 -73 -2 -18 2 -55 8 -83
6 -28 8 -53 5 -56 -13 -14 -53 21 -85 73 -32 55 -34 63 -35 151 0 90 1 94 27
115 15 12 62 37 105 56 43 19 125 57 182 85 l104 52 24 -29 c111 -135 239
-378 267 -507 4 -16 13 -28 21 -28 20 0 19 9 -11 98 -39 118 -128 288 -202
386 -85 113 -80 103 -87 156 -3 28 -15 57 -30 74 -14 16 -25 32 -25 35 -1 3
-5 76 -10 161 -5 85 -12 203 -16 263 l-7 107 42 0 c35 0 48 6 72 31 27 29 29
37 29 110 0 82 -10 119 -44 157 -22 25 -74 30 -94 10 -22 -22 -30 8 -36 131
-4 64 -10 168 -15 231 -4 68 -4 120 2 127 5 7 20 10 36 7 39 -8 104 12 131 40
29 32 31 97 4 127 -47 52 -144 66 -207 29 l-34 -20 -34 30 c-28 24 -43 30 -84
30 -33 0 -61 -7 -83 -20 l-33 -20 -31 21 c-46 34 -104 35 -160 5 -41 -22 -48
-23 -59 -10 -17 21 -76 44 -111 44 -33 0 -63 -13 -96 -43 -19 -18 -26 -19 -40
-9 -69 50 -147 63 -212 35z m153 -35 c12 -6 31 -22 42 -35 28 -32 45 -29 78
12 25 32 32 35 79 35 45 0 57 -4 85 -32 29 -28 36 -31 51 -20 54 39 80 52 102
52 27 0 90 -34 90 -49 0 -23 35 -20 61 5 19 18 42 28 73 31 44 5 48 4 83 -35
l38 -41 44 29 c47 32 87 37 140 19 42 -15 66 -60 50 -92 -21 -38 -41 -46 -116
-47 -39 0 -74 -3 -76 -8 -3 -4 -1 -79 4 -167 5 -88 12 -219 15 -291 l7 -131
-89 -10 c-58 -7 -93 -7 -101 0 -7 5 -13 27 -13 49 0 32 -7 47 -33 73 -59 59
-111 59 -178 -2 -38 -34 -40 -35 -54 -17 -8 10 -15 22 -15 25 0 11 -71 39 -98
39 -54 0 -101 -46 -126 -124 -6 -17 -14 -18 -93 -13 -50 4 -92 12 -98 19 -12
13 -12 26 15 278 25 237 29 293 24 301 -3 5 -38 9 -78 9 -59 0 -78 4 -100 21
-41 32 -29 84 26 114 29 17 133 19 161 3z m320 -647 c65 -25 78 -178 19 -236
-27 -27 -86 -34 -123 -15 -69 38 -62 210 11 247 30 15 60 16 93 4z m272 -14
c42 -42 48 -154 12 -208 -20 -30 -28 -34 -74 -37 -41 -2 -56 1 -77 20 -61 53
-39 211 34 241 24 10 88 0 105 -16z m-710 -54 c15 -14 16 -30 10 -107 -8 -107
-20 -126 -77 -126 -32 0 -40 4 -48 26 -23 60 -9 153 30 194 31 34 60 38 85 13z
m1109 -25 c8 -13 20 -48 26 -78 22 -102 -16 -173 -83 -156 -29 7 -33 20 -42
136 -6 68 -5 77 15 98 11 12 32 22 45 22 15 0 30 -9 39 -22z m-916 -37 c56 -8
72 -21 72 -59 0 -91 146 -131 220 -61 l30 29 31 -29 c57 -55 151 -53 194 3 14
18 25 40 25 48 0 28 24 36 115 39 l90 4 7 -50 c4 -27 12 -133 18 -235 6 -102
16 -249 22 -328 10 -121 9 -145 -3 -157 -21 -21 -161 -65 -258 -81 -111 -18
-322 -18 -442 0 -126 19 -199 44 -292 100 l-48 29 5 51 c3 28 10 98 16 156 6
58 15 146 20 195 5 50 14 144 20 210 7 66 14 126 16 133 4 14 59 15 142 3z
m-195 -799 c94 -63 222 -104 367 -116 84 -7 101 -17 79 -43 -23 -27 -39 -70
-39 -103 0 -27 -3 -30 -32 -30 -72 0 -265 78 -420 168 -26 15 -28 21 -28 77 0
86 8 91 73 47z m1077 -41 c18 -35 12 -68 -17 -89 -46 -31 -282 -142 -303 -142
-5 0 -14 19 -20 43 -6 23 -17 54 -26 70 -20 35 -11 47 34 47 43 1 184 38 257
68 62 26 62 26 75 3z"/>
<path d="M616 1537 c-33 -25 -49 -120 -24 -145 19 -19 48 -15 48 8 0 11 -7 20
-15 20 -8 0 -15 8 -14 18 2 36 15 67 29 67 20 0 25 31 6 38 -8 3 -21 0 -30 -6z"/>
<path d="M1720 1505 c0 -9 7 -18 15 -21 8 -3 17 -22 21 -41 6 -30 3 -39 -17
-54 -20 -15 -22 -20 -11 -31 9 -9 17 -10 30 -2 20 13 29 112 12 144 -13 23
-50 27 -50 5z"/>
<path d="M1057 1295 c-30 -29 -57 -85 -57 -122 0 -26 23 -78 49 -106 38 -44
138 -60 212 -34 70 24 99 67 99 145 0 43 -5 55 -41 96 -22 25 -49 46 -60 46
-27 0 -24 -5 21 -46 47 -43 63 -89 47 -139 -15 -51 -56 -77 -130 -82 -78 -5
-124 16 -150 70 -28 55 -16 107 34 152 21 19 39 37 39 40 0 14 -39 2 -63 -20z"/>
<path d="M495 181 c-6 -10 -21 -80 -32 -143 -4 -30 -2 -38 10 -38 14 0 27 47
44 158 5 30 -8 44 -22 23z"/>
</g>
</svg>
